<?xml version="1.0" encoding="iso-8859-1"?>
<!-- Generator: Adobe Illustrator 19.0.0, SVG Export Plug-In . SVG Version: 6.00 Build 0)  -->
<svg version="1.1" id="Capa_1" xmlns="http://www.w3.org/2000/svg" xmlns:xlink="http://www.w3.org/1999/xlink" x="0px" y="0px"
	 viewBox="0 0 336 336" style="enable-background:new 0 0 336 336;" xml:space="preserve">
<g>
	<g>
		<path d="M300.76,95.08L300.76,95.08l-60,0v-60C240.651,15.736,224.984,0.087,205.64,0h-75.28
			c-19.453,0.022-35.218,15.787-35.24,35.24v60h-60C15.76,95.328,0.088,111,0,130.36v75.32c0.022,19.453,15.787,35.218,35.24,35.24
			h60v60c0.109,19.344,15.776,34.993,35.12,35.08h75.28c19.453-0.022,35.218-15.787,35.24-35.24v-60h60
			c19.344-0.087,35.011-15.736,35.12-35.08v-75.32C336,110.891,320.229,95.102,300.76,95.08z"/>
	</g>
</g>
<g>
</g>
<g>
</g>
<g>
</g>
<g>
</g>
<g>
</g>
<g>
</g>
<g>
</g>
<g>
</g>
<g>
</g>
<g>
</g>
<g>
</g>
<g>
</g>
<g>
</g>
<g>
</g>
<g>
</g>
</svg>
